<?xml version="1.0" encoding="utf-8"?>
<!-- Generator: Adobe Illustrator 23.0.1, SVG Export Plug-In . SVG Version: 6.00 Build 0)  -->
<svg version="1.1" id="Capa_1" xmlns="http://www.w3.org/2000/svg" xmlns:xlink="http://www.w3.org/1999/xlink" x="0px" y="0px"
	 viewBox="0 0 199.56 93.29" style="enable-background:new 0 0 199.56 93.29;" xml:space="preserve">
<style type="text/css">
	.st0{fill:#0680B5;}
</style>
<g>
	<g>
		<path class="st0" d="M193.03,80.23c-7.05,0-13.75-3.07-18.36-8.43c-1.24-1.44-3.05-2.27-4.95-2.27c-1.9,0-3.71,0.83-4.95,2.27
			c-4.62,5.35-11.31,8.43-18.36,8.43c-7.06,0-13.75-3.07-18.37-8.43c-1.24-1.44-3.05-2.27-4.95-2.27c-1.9,0-3.7,0.83-4.95,2.27
			c-4.62,5.35-11.31,8.43-18.36,8.43c-7.05,0-13.75-3.07-18.36-8.43c-1.24-1.44-3.05-2.27-4.95-2.27c-1.9,0-3.71,0.83-4.95,2.27
			c-4.62,5.35-11.31,8.43-18.36,8.43c-7.06,0-13.75-3.07-18.37-8.43c-1.24-1.44-3.04-2.27-4.95-2.27c-1.9,0-3.7,0.83-4.95,2.27
			c-4.62,5.36-11.31,8.43-18.36,8.43C2.92,80.23,0,83.16,0,86.76c0,3.61,2.92,6.53,6.53,6.53c7.6,0,14.92-2.32,21.07-6.53
			c0.77-0.52,1.52-1.07,2.25-1.66c0.73,0.58,1.48,1.13,2.24,1.66c6.15,4.21,13.47,6.53,21.07,6.53c7.6,0,14.92-2.32,21.07-6.53
			c0.77-0.52,1.52-1.07,2.24-1.66c0.73,0.58,1.48,1.13,2.24,1.66c6.15,4.21,13.47,6.53,21.07,6.53s14.92-2.32,21.07-6.53
			c0.77-0.52,1.52-1.07,2.24-1.66c0.73,0.58,1.48,1.13,2.25,1.66c6.15,4.21,13.47,6.53,21.07,6.53c7.6,0,14.92-2.32,21.07-6.53
			c0.76-0.52,1.52-1.07,2.24-1.66c0.73,0.58,1.48,1.13,2.24,1.66c6.15,4.21,13.47,6.53,21.07,6.53c3.61,0,6.53-2.92,6.53-6.53
			C199.56,83.16,196.64,80.23,193.03,80.23L193.03,80.23z M193.03,80.23"/>
		<path class="st0" d="M193.03,45.46c-7.05,0-13.75-3.07-18.36-8.43c-1.24-1.44-3.05-2.27-4.95-2.27c-1.9,0-3.71,0.83-4.95,2.27
			c-4.62,5.36-11.31,8.43-18.36,8.43c-7.06,0-13.75-3.07-18.37-8.43c-1.24-1.44-3.05-2.26-4.95-2.26c-1.9,0-3.7,0.83-4.95,2.26
			c-4.62,5.36-11.31,8.43-18.36,8.43c-7.05,0-13.75-3.07-18.36-8.43c-1.24-1.44-3.05-2.26-4.95-2.26c-1.9,0-3.71,0.83-4.95,2.26
			c-4.62,5.36-11.31,8.43-18.36,8.43c-7.06,0-13.75-3.07-18.37-8.43c-1.24-1.44-3.04-2.27-4.95-2.27c-1.9,0-3.7,0.83-4.95,2.27
			c-4.62,5.36-11.31,8.43-18.36,8.43C2.92,45.46,0,48.39,0,52c0,3.61,2.92,6.53,6.53,6.53c7.6,0,14.92-2.32,21.07-6.53
			c0.77-0.53,1.52-1.07,2.25-1.66c0.73,0.58,1.48,1.13,2.24,1.66c6.15,4.21,13.47,6.53,21.07,6.53c7.6,0,14.92-2.32,21.07-6.53
			c0.77-0.53,1.52-1.07,2.24-1.66c0.73,0.58,1.48,1.13,2.24,1.66c6.15,4.21,13.47,6.53,21.07,6.53s14.92-2.32,21.07-6.53
			c0.77-0.53,1.52-1.07,2.24-1.66c0.73,0.58,1.48,1.13,2.25,1.66c6.15,4.21,13.47,6.53,21.07,6.53c7.6,0,14.92-2.32,21.07-6.53
			c0.76-0.53,1.52-1.07,2.24-1.66c0.73,0.58,1.48,1.13,2.24,1.66c6.15,4.21,13.47,6.53,21.07,6.53c3.61,0,6.53-2.92,6.53-6.53
			C199.56,48.39,196.64,45.46,193.03,45.46L193.03,45.46z M193.03,45.46"/>
		<path class="st0" d="M6.53,23.76c7.6,0,14.92-2.32,21.07-6.53c0.77-0.53,1.52-1.08,2.25-1.66c0.73,0.58,1.48,1.13,2.24,1.66
			c6.15,4.21,13.47,6.53,21.07,6.53c7.6,0,14.92-2.32,21.07-6.53c0.77-0.53,1.52-1.08,2.24-1.66c0.73,0.58,1.48,1.13,2.24,1.66
			c6.15,4.21,13.47,6.53,21.07,6.53s14.92-2.32,21.07-6.53c0.77-0.53,1.52-1.08,2.24-1.66c0.73,0.58,1.48,1.13,2.25,1.66
			c6.15,4.21,13.47,6.53,21.07,6.53c7.6,0,14.92-2.32,21.07-6.53c0.76-0.53,1.52-1.08,2.24-1.66c0.73,0.58,1.48,1.13,2.24,1.66
			c6.15,4.21,13.47,6.53,21.07,6.53c3.61,0,6.53-2.92,6.53-6.53c0-3.61-2.93-6.53-6.53-6.53c-7.05,0-13.74-3.07-18.36-8.43
			C173.42,0.83,171.62,0,169.72,0c-1.9,0-3.71,0.83-4.95,2.27c-4.62,5.35-11.31,8.43-18.36,8.43c-7.05,0-13.75-3.07-18.37-8.43
			C126.8,0.83,124.99,0,123.09,0c-1.9,0-3.7,0.83-4.94,2.27c-4.62,5.35-11.31,8.43-18.37,8.43c-7.05,0-13.75-3.07-18.36-8.43
			C80.18,0.83,78.37,0,76.47,0c-1.9,0-3.71,0.83-4.95,2.27C66.9,7.62,60.21,10.7,53.16,10.7c-7.05,0-13.75-3.07-18.37-8.43
			C33.55,0.83,31.75,0,29.85,0c-1.9,0-3.71,0.83-4.95,2.27C20.28,7.63,13.58,10.7,6.53,10.7C2.92,10.7,0,13.62,0,17.23
			C0,20.84,2.92,23.76,6.53,23.76L6.53,23.76z M6.53,23.76"/>
	</g>
</g>
</svg>
