<?xml version="1.0" encoding="utf-8"?>
<!-- Generator: Adobe Illustrator 23.0.1, SVG Export Plug-In . SVG Version: 6.00 Build 0)  -->
<svg version="1.1" id="Capa_1" xmlns="http://www.w3.org/2000/svg" xmlns:xlink="http://www.w3.org/1999/xlink" x="0px" y="0px"
	 viewBox="0 0 200 200" style="enable-background:new 0 0 200 200;" xml:space="preserve">
<style type="text/css">
	.st0{fill:#0680B5;}
</style>
<g>
	<path class="st0" d="M103.52,128.83c7.96-8.38,12.01-19.36,11.41-30.9l-0.25-4.8l-4.81-0.25c-8.97-0.47-17.59,1.87-24.92,6.67
		H71.13l-22.3,22.3h19.09c-1.03,3.24-1.66,6.62-1.87,10.09l-26.35,3.04l8.37,4.4c8.73,4.59,15.77,11.63,20.35,20.35l4.4,8.37
		l3.04-26.35c2.14-0.13,4.24-0.42,6.3-0.86v19.33l16.59-16.59l-0.51-10.09C100.11,132.14,101.87,130.56,103.52,128.83L103.52,128.83
		z M62.92,116.01l10.63-10.63h4.31c-3.11,3.17-5.65,6.75-7.58,10.63H62.92z M69.06,149.82c-3.13-4.21-6.85-7.93-11.07-11.07
		l12.51-1.44L69.06,149.82z M92.79,141.33L88,146.13v-6.95c1.57-0.59,3.1-1.27,4.58-2.05L92.79,141.33z M73.25,135.99h-1.44v-1.44
		c0-9.94,3.97-19.19,11.18-26.03c7.1-6.74,16.36-10.23,26.13-9.84c0.39,9.76-3.09,19.03-9.84,26.13
		C92.44,132.02,83.19,135.99,73.25,135.99L73.25,135.99z M73.25,135.99"/>
	<path class="st0" d="M94.95,106.03l-5.01,3c1.08,1.8,2.38,3.47,3.87,4.96c1.5,1.5,3.17,2.8,4.97,3.88l3-5.01
		c-1.39-0.83-2.68-1.84-3.84-3C96.79,108.71,95.78,107.42,94.95,106.03L94.95,106.03z M94.95,106.03"/>
	<path class="st0" d="M148.38,107.12l4.81-0.25l0.25-4.81c0.47-8.97-1.88-17.58-6.67-24.92V63.32l-22.3-22.3v19.09
		c-3.24-1.03-6.62-1.66-10.09-1.87l-3.04-26.35l-4.4,8.37c-4.59,8.73-11.63,15.77-20.36,20.35l-8.37,4.4l26.35,3.04
		c0.13,2.14,0.42,4.24,0.86,6.3H86.09l16.59,16.59l10.09-0.51c1.4,1.87,2.97,3.63,4.71,5.28c7.84,7.44,17.95,11.47,28.66,11.47
		C146.88,107.18,147.63,107.16,148.38,107.12L148.38,107.12z M130.3,55.12l10.63,10.63v4.31c-3.18-3.11-6.76-5.65-10.63-7.58V55.12z
		 M96.49,61.25c4.21-3.13,7.93-6.86,11.06-11.06L109,62.69L96.49,61.25z M104.97,84.99l-4.79-4.79h6.95
		c0.59,1.57,1.27,3.09,2.05,4.58L104.97,84.99z M110.31,65.44V64h1.44c9.94,0,19.19,3.97,26.03,11.18
		c6.74,7.1,10.23,16.36,9.84,26.13c-9.76,0.39-19.03-3.1-26.13-9.84C114.29,84.63,110.31,75.39,110.31,65.44L110.31,65.44z
		 M110.31,65.44"/>
	<path class="st0" d="M132.32,86.01c-1.49,1.49-2.8,3.16-3.87,4.96l5.01,3c0.83-1.39,1.84-2.68,2.99-3.83
		c1.16-1.16,2.45-2.17,3.84-3l-2.99-5.01C135.49,83.21,133.82,84.51,132.32,86.01L132.32,86.01z M132.32,86.01"/>
	<path class="st0" d="M64.15,68.41H34.69v29.46h29.46V68.41z M58.32,92.03H40.53V74.25h17.78V92.03z M58.32,92.03"/>
	<path class="st0" d="M74.25,40.53h17.78v7.92h5.84V34.69H68.41v26.54h5.84V40.53z M74.25,40.53"/>
	<path class="st0" d="M64.15,34.69H34.69v29.46h29.46V34.69z M58.32,58.32H40.53V40.53h17.78V58.32z M58.32,58.32"/>
	<path class="st0" d="M159.47,125.75h-17.78v-14.29h-5.84v20.13h29.46v-26.54h-5.84V125.75z M159.47,125.75"/>
	<path class="st0" d="M135.85,48.45h5.84v-7.91h17.78v17.78h-7.91v5.84h13.75V34.69h-29.46V48.45z M135.85,48.45"/>
	<path class="st0" d="M151.63,74.25h7.84v20.7h5.84V68.41h-13.68V74.25z M151.63,74.25"/>
	<path class="st0" d="M185.28,74.25c1.44,0.9,3.14,1.42,4.96,1.42c5.18,0,9.39-4.21,9.39-9.39s-4.21-9.39-9.39-9.39
		c-1.82,0-3.52,0.52-4.96,1.42h-9.88V40.53h9.88c1.44,0.9,3.14,1.42,4.96,1.42c5.18,0,9.39-4.21,9.39-9.39
		c0-5.18-4.21-9.39-9.39-9.39c-1.82,0-3.52,0.52-4.96,1.42h-9.88v-9.88c0.9-1.44,1.42-3.14,1.42-4.96c0-5.18-4.21-9.39-9.39-9.39
		c-5.18,0-9.39,4.21-9.39,9.39c0,1.82,0.52,3.52,1.42,4.96v9.88h-17.78v-9.88c0.9-1.44,1.42-3.14,1.42-4.96
		c0-5.18-4.21-9.39-9.39-9.39c-5.18,0-9.39,4.21-9.39,9.39c0,1.82,0.52,3.52,1.42,4.96v9.88h-17.78v-9.88
		c0.9-1.44,1.42-3.14,1.42-4.96c0-5.18-4.21-9.39-9.39-9.39s-9.39,4.21-9.39,9.39c0,1.82,0.52,3.52,1.42,4.96v9.88H74.25v-9.88
		c0.9-1.44,1.42-3.14,1.42-4.96c0-5.18-4.21-9.39-9.39-9.39S56.9,4.58,56.9,9.76c0,1.82,0.52,3.52,1.42,4.96v9.88H40.53v-9.88
		c0.9-1.44,1.42-3.14,1.42-4.96c0-5.18-4.21-9.39-9.39-9.39c-5.17,0-9.39,4.21-9.39,9.39c0,1.82,0.52,3.52,1.42,4.96v9.88h-9.88
		c-1.44-0.9-3.14-1.42-4.96-1.42c-5.18,0-9.39,4.21-9.39,9.39c0,5.18,4.21,9.39,9.39,9.39c1.82,0,3.52-0.52,4.96-1.42h9.88v17.78
		h-9.88c-1.44-0.9-3.14-1.42-4.96-1.42c-5.18,0-9.39,4.21-9.39,9.39s4.21,9.39,9.39,9.39c1.82,0,3.52-0.52,4.96-1.42h9.88v17.78
		h-9.88c-1.44-0.9-3.14-1.42-4.96-1.42c-5.18,0-9.39,4.21-9.39,9.39c0,5.18,4.21,9.39,9.39,9.39c1.82,0,3.52-0.52,4.96-1.42h9.88
		v17.78h-9.88c-1.44-0.9-3.14-1.42-4.96-1.42c-5.18,0-9.39,4.21-9.39,9.39c0,5.18,4.21,9.39,9.39,9.39c1.82,0,3.52-0.52,4.96-1.42
		h9.88v17.78h-9.88c-1.44-0.9-3.14-1.42-4.96-1.42c-5.18,0-9.39,4.21-9.39,9.39c0,5.18,4.21,9.39,9.39,9.39
		c1.82,0,3.52-0.52,4.96-1.42h9.88v9.88c-0.9,1.44-1.42,3.14-1.42,4.96c0,5.18,4.21,9.39,9.39,9.39c5.18,0,9.39-4.21,9.39-9.39
		c0-1.82-0.52-3.52-1.42-4.96v-9.88h17.78v9.88c-0.9,1.44-1.42,3.14-1.42,4.96c0,5.18,4.21,9.39,9.39,9.39s9.39-4.21,9.39-9.39
		c0-1.82-0.52-3.52-1.42-4.96v-9.88h17.78v9.88c-0.9,1.44-1.42,3.14-1.42,4.96c0,5.18,4.21,9.39,9.39,9.39s9.39-4.21,9.39-9.39
		c0-1.82-0.52-3.52-1.42-4.96v-9.88h17.78v9.88c-0.9,1.44-1.42,3.14-1.42,4.96c0,5.18,4.21,9.39,9.39,9.39
		c5.18,0,9.39-4.21,9.39-9.39c0-1.82-0.52-3.52-1.42-4.96v-9.88h17.78v9.88c-0.9,1.44-1.42,3.14-1.42,4.96
		c0,5.18,4.21,9.39,9.39,9.39c5.18,0,9.39-4.21,9.39-9.39c0-1.82-0.52-3.52-1.42-4.96v-9.88h9.88c1.44,0.9,3.14,1.42,4.96,1.42
		c5.18,0,9.39-4.21,9.39-9.39c0-5.18-4.21-9.39-9.39-9.39c-1.82,0-3.52,0.52-4.96,1.42h-9.88v-17.78h9.88
		c1.44,0.9,3.14,1.42,4.96,1.42c5.18,0,9.39-4.21,9.39-9.39s-4.21-9.39-9.39-9.39c-1.82,0-3.52,0.52-4.96,1.42h-9.88v-17.78h9.88
		c1.44,0.9,3.14,1.42,4.96,1.42c5.18,0,9.39-4.21,9.39-9.39c0-5.18-4.21-9.39-9.39-9.39c-1.82,0-3.52,0.52-4.96,1.42h-9.88V74.25
		H185.28z M190.24,62.73c1.96,0,3.55,1.59,3.55,3.55c0,1.96-1.59,3.55-3.55,3.55c-1.96,0-3.55-1.59-3.55-3.55
		C186.7,64.33,188.29,62.73,190.24,62.73L190.24,62.73z M190.24,29.02c1.96,0,3.55,1.59,3.55,3.55c0,1.96-1.59,3.55-3.55,3.55
		c-1.96,0-3.55-1.59-3.55-3.55C186.7,30.61,188.29,29.02,190.24,29.02L190.24,29.02z M167.43,6.21c1.96,0,3.55,1.59,3.55,3.55
		c0,1.96-1.59,3.55-3.55,3.55c-1.96,0-3.55-1.59-3.55-3.55C163.88,7.8,165.48,6.21,167.43,6.21L167.43,6.21z M133.72,6.21
		c1.96,0,3.55,1.59,3.55,3.55c0,1.96-1.59,3.55-3.55,3.55c-1.96,0-3.55-1.59-3.55-3.55C130.17,7.8,131.76,6.21,133.72,6.21
		L133.72,6.21z M100,6.21c1.96,0,3.55,1.59,3.55,3.55c0,1.96-1.59,3.55-3.55,3.55c-1.96,0-3.55-1.59-3.55-3.55
		C96.45,7.8,98.04,6.21,100,6.21L100,6.21z M66.28,6.21c1.96,0,3.55,1.59,3.55,3.55c0,1.96-1.59,3.55-3.55,3.55
		c-1.96,0-3.55-1.59-3.55-3.55C62.73,7.8,64.33,6.21,66.28,6.21L66.28,6.21z M32.56,6.21c1.96,0,3.55,1.59,3.55,3.55
		c0,1.96-1.59,3.55-3.55,3.55c-1.96,0-3.55-1.59-3.55-3.55C29.02,7.8,30.61,6.21,32.56,6.21L32.56,6.21z M9.76,36.12
		c-1.96,0-3.55-1.59-3.55-3.55c0-1.96,1.59-3.55,3.55-3.55c1.96,0,3.55,1.59,3.55,3.55C13.3,34.52,11.71,36.12,9.76,36.12
		L9.76,36.12z M9.76,69.83c-1.96,0-3.55-1.59-3.55-3.55c0-1.96,1.59-3.55,3.55-3.55c1.96,0,3.55,1.59,3.55,3.55
		C13.3,68.24,11.71,69.83,9.76,69.83L9.76,69.83z M9.76,103.55c-1.96,0-3.55-1.59-3.55-3.55c0-1.96,1.59-3.55,3.55-3.55
		c1.96,0,3.55,1.59,3.55,3.55C13.3,101.96,11.71,103.55,9.76,103.55L9.76,103.55z M9.76,137.27c-1.96,0-3.55-1.59-3.55-3.55
		c0-1.96,1.59-3.55,3.55-3.55c1.96,0,3.55,1.59,3.55,3.55C13.3,135.67,11.71,137.27,9.76,137.27L9.76,137.27z M9.76,170.98
		c-1.96,0-3.55-1.59-3.55-3.55c0-1.96,1.59-3.55,3.55-3.55c1.96,0,3.55,1.59,3.55,3.55C13.3,169.39,11.71,170.98,9.76,170.98
		L9.76,170.98z M32.56,193.79c-1.96,0-3.55-1.59-3.55-3.55c0-1.96,1.59-3.55,3.55-3.55c1.96,0,3.55,1.59,3.55,3.55
		C36.12,192.2,34.52,193.79,32.56,193.79L32.56,193.79z M66.28,193.79c-1.96,0-3.55-1.59-3.55-3.55c0-1.96,1.59-3.55,3.55-3.55
		c1.96,0,3.55,1.59,3.55,3.55C69.83,192.2,68.24,193.79,66.28,193.79L66.28,193.79z M100,193.79c-1.96,0-3.55-1.59-3.55-3.55
		c0-1.96,1.59-3.55,3.55-3.55c1.96,0,3.55,1.59,3.55,3.55C103.55,192.2,101.96,193.79,100,193.79L100,193.79z M133.72,193.79
		c-1.96,0-3.55-1.59-3.55-3.55c0-1.96,1.59-3.55,3.55-3.55c1.96,0,3.55,1.59,3.55,3.55C137.27,192.2,135.67,193.79,133.72,193.79
		L133.72,193.79z M167.43,193.79c-1.96,0-3.55-1.59-3.55-3.55c0-1.96,1.59-3.55,3.55-3.55c1.96,0,3.55,1.59,3.55,3.55
		C170.98,192.2,169.39,193.79,167.43,193.79L167.43,193.79z M190.24,163.88c1.96,0,3.55,1.59,3.55,3.55c0,1.96-1.59,3.55-3.55,3.55
		c-1.96,0-3.55-1.59-3.55-3.55C186.7,165.48,188.29,163.88,190.24,163.88L190.24,163.88z M190.24,130.17c1.96,0,3.55,1.59,3.55,3.55
		c0,1.96-1.59,3.55-3.55,3.55c-1.96,0-3.55-1.59-3.55-3.55C186.7,131.76,188.29,130.17,190.24,130.17L190.24,130.17z M190.24,96.45
		c1.96,0,3.55,1.59,3.55,3.55c0,1.96-1.59,3.55-3.55,3.55c-1.96,0-3.55-1.59-3.55-3.55C186.7,98.04,188.29,96.45,190.24,96.45
		L190.24,96.45z M180.86,97.87v4.26h-11.3v29.46h11.3v4.26h-11.3v29.46h11.3v4.26h-11.3v11.29h-4.26v-11.29h-29.46v11.29h-4.26
		v-11.29h-29.46v11.29h-4.26v-11.29H68.41v11.29h-4.26v-11.29H34.69v11.29h-4.26v-11.29H19.14v-4.26h11.29v-29.46H19.14v-4.26h11.29
		v-29.46H19.14v-4.26h11.29V68.41H19.14v-4.26h11.29V34.69H19.14v-4.26h11.29V19.14h4.26v11.29h29.46V19.14h4.26v11.29h29.46V19.14
		h4.26v11.29h29.46V19.14h4.26v11.29h29.46V19.14h4.26v11.29h11.29v4.26h-11.29v29.46h11.29v4.26h-11.29v29.46H180.86z
		 M180.86,97.87"/>
	<path class="st0" d="M135.85,165.31h29.46v-29.46h-29.46V165.31z M141.68,141.68h17.78v17.78h-17.78V141.68z M141.68,141.68"/>
	<path class="st0" d="M74.25,74.25h5.83v-5.84H68.41v26.27h5.84V74.25z M74.25,74.25"/>
	<path class="st0" d="M51.98,125.75H40.53v-17.78h18.22v-5.84H34.69v29.46h17.28V125.75z M51.98,125.75"/>
	<path class="st0" d="M58.32,159.47H40.53v-20.09h-5.84v25.93h29.46v-8.04h-5.84V159.47z M58.32,159.47"/>
	<path class="st0" d="M125.75,125.75h-15.68v5.84h21.51v-22.96h-5.84V125.75z M125.75,125.75"/>
	<path class="st0" d="M92.03,159.47h-5.16v5.84h10.99v-10.99h-5.84V159.47z M92.03,159.47"/>
	<path class="st0" d="M102.13,165.31h29.46v-29.46h-29.46V165.31z M107.97,141.68h17.78v17.78h-17.78V141.68z M107.97,141.68"/>
	<path class="st0" d="M79.09,132.1l-1.03-5.74c5.56-1,10.59-3.73,14.54-7.89l4.23,4.02C92.03,127.56,85.89,130.88,79.09,132.1
		L79.09,132.1z M79.09,132.1"/>
	<path class="st0" d="M123.82,89.03c-5.07-4.81-8.39-10.95-9.61-17.74l5.75-1.03c1,5.56,3.73,10.59,7.89,14.54L123.82,89.03z
		 M123.82,89.03"/>
</g>
</svg>
