<?xml version="1.0" encoding="utf-8"?>
<!-- Generator: Adobe Illustrator 23.0.1, SVG Export Plug-In . SVG Version: 6.00 Build 0)  -->
<svg version="1.1" id="Capa_1" xmlns="http://www.w3.org/2000/svg" xmlns:xlink="http://www.w3.org/1999/xlink" x="0px" y="0px"
	 viewBox="0 0 199.37 149.53" style="enable-background:new 0 0 199.37 149.53;" xml:space="preserve">
<style type="text/css">
	.st0{fill:#0680B5;}
</style>
<g>
	<path class="st0" d="M198.84,76.89c-16.6-29.72-43.9-47.9-75.9-51.27C106.9,5.37,56.57,0.23,54.4,0.02
		c-1.42-0.15-2.84,0.47-3.71,1.62c-0.87,1.14-1.09,2.66-0.57,4c4.93,12.81,9.99,27.38,11.33,33.34
		c-9.14,4.18-17.13,8.63-22.28,12.34C28,33.45,5.2,33.23,4.15,33.23c-2.3,0-4.15,1.86-4.15,4.15c0,24.07,8.39,36.14,14,41.54
		C8.39,84.31,0,96.39,0,120.45c0,2.3,1.86,4.15,4.15,4.15c1.04,0,23.85-0.22,35.02-18.09c6.84,4.92,18.67,11.15,31.6,16.33
		c-2.86,4.62-4.32,11.97-4.32,22.53c0,2.3,1.86,4.15,4.15,4.15c1.24,0,29.48-0.24,43.55-16.74c35.77-0.69,66.58-19.43,84.68-51.84
		C199.54,79.68,199.54,78.15,198.84,76.89z M60.32,9.12c13.96,2.02,36.87,6.99,49.82,15.89c-11.94,0.47-27.17,4.98-40.98,10.64
		C67.32,28.35,63.24,16.94,60.32,9.12z M78.38,125.72c-0.02,0-0.01,0-0.04,0l0-0.01C78.36,125.71,78.37,125.71,78.38,125.72z
		 M78.83,125.87c8.09,2.84,16.29,5.1,23.74,6.23c-9.01,6.34-21.29,8.31-27.71,8.88C75.41,129.43,78.08,126.47,78.83,125.87z
		 M112.14,124.61c-24.27,0-63.96-19.93-71.31-27.45c-0.79-0.81-1.86-1.25-2.97-1.25c-0.25,0-0.51,0.02-0.76,0.07
		c-1.36,0.25-2.51,1.17-3.05,2.44c-5.61,13-18.79,16.55-25.64,17.52c1.3-26.03,13.62-32.98,14.25-33.32
		c1.37-0.7,2.21-2.12,2.23-3.65c0.02-1.55-0.85-3-2.23-3.73c-0.56-0.3-12.95-7.2-14.25-33.3c6.85,1,20.08,4.6,25.64,17.49
		c0.55,1.27,1.7,2.19,3.05,2.44c1.37,0.26,2.76-0.19,3.73-1.18c7.35-7.52,47.04-27.45,71.31-27.45c32.79,0,61.2,16.62,78.28,45.69
		C173.34,107.99,144.94,124.61,112.14,124.61z"/>
	<path class="st0" d="M124.61,78.92c0-19.11,7.54-30.82,7.62-30.94c1.26-1.91,0.73-4.49-1.18-5.75c-1.91-1.26-4.48-0.74-5.74,1.16
		c-0.37,0.55-9,13.76-9,35.53s8.64,34.98,9,35.53c0.8,1.2,2.12,1.85,3.46,1.85c0.79,0,1.59-0.23,2.3-0.7
		c1.91-1.27,2.43-3.85,1.15-5.76C132.14,109.73,124.61,98.2,124.61,78.92z"/>
	<path class="st0" d="M114.43,42.23c-1.91-1.26-4.47-0.74-5.74,1.16c-0.37,0.55-9,13.76-9,35.53c0,11.63,2.51,20.77,4.61,26.39
		c0.62,1.67,2.21,2.7,3.89,2.7c0.48,0,0.98-0.09,1.46-0.26c2.15-0.8,3.24-3.2,2.43-5.35c-1.86-4.98-4.08-13.09-4.08-23.47
		c0-19.11,7.54-30.82,7.62-30.94C116.87,46.07,116.34,43.5,114.43,42.23z"/>
	<circle class="st0" cx="149.53" cy="66.46" r="8.31"/>
</g>
</svg>
