<svg xmlns="http://www.w3.org/2000/svg" viewBox="0 0 369.94 300.5"><defs><style>.cls-1{fill:#2980b9;}.cls-2{fill:#003057;}.cls-3{fill:#53b4d7;}</style></defs><title>Recurso 1</title><g id="Capa_2" data-name="Capa 2"><g id="Capa_1-2" data-name="Capa 1"><path class="cls-1" d="M60,240v.42c-5.29.9-9.18,4.54-12.4,12.81-2.81,7.2-15.88,44.66-15.88,44.66H29.85s-18-41.1-20.17-46.39S5.21,240.45,0,240.45V240H26.05v.42c-4,0-4.55,1.57-2.32,7.6,2.15,5.71,12.32,29.44,13.65,32.5,3.8-10.75,8-22.82,8.51-24.31,2.65-7,2-15.79-3.55-15.79V240Z"/><path class="cls-1" d="M111.78,297.5v.42H87.3v-.42c4.06,0,4.63-1.57,2.32-7.6-.83-2.32-3-7.94-5.29-14.06h-16c-1.24,3.14-2.07,5.29-2.32,5.87-2.56,6.94-1.9,15.79,3.64,15.79v.42H52.08v-.42c5.29-1,9.18-4.63,12.4-12.81L81.93,240h1.82s16.2,41,18.36,46.31S106.57,297.5,111.78,297.5Zm-27.62-22c-3.47-9-7.19-18.86-7.77-20.26-2.73,6.94-5.79,14.88-7.94,20.26Z"/><path class="cls-1" d="M168.9,290.06v1.32c-4.38,3.56-9,6.54-18,7.11-17.12,1.08-34.31-7-35.64-26.79s13.23-30.76,30.35-32.25c5-.49,11.25.75,15.13,1.74s6.78,1.4,6.78-4.22h.42v20.84h-.42c0-5.13-7.19-19.18-21.83-18-12.65,1.08-17,18-16,31.18s8.19,27.45,21.25,27.12C158.64,297.92,164.52,294.28,168.9,290.06Z"/><path class="cls-1" d="M219.09,252h-.42c-2.4-5.37-7.11-11.57-15.46-11.57h-2c-4.71,0-5.12,3.06-5.2,9.09v19.35h1.24c6.36,0,11.57-5,11.57-10.67h.42v21.67h-.42c0-5.62-5.21-10.67-11.57-10.67H196v19.19c.08,6.12.49,9.09,5.2,9.09v.42H178v-.42c4.71,0,5.21-3,5.21-9.09V249.54c0-6-.5-9.09-5.21-9.09V240h38.28Z"/><path class="cls-1" d="M369.94,240.45V240H346.7v.42c4.72,0,5.21,3.06,5.21,9.09v18.38H329.34V249.54c0-6,.49-9.09,5.13-9.09V240H311.31v.42c4.72,0,5.13,3.06,5.21,9.09v38.87c-.08,6-.49,9.09-5.21,9.09v.42h23.16v-.42c-4.64,0-5.13-3.06-5.13-9.09V270h22.57v18.38c0,6-.49,9.09-5.21,9.09v.42h23.24v-.42c-4.71,0-5.13-3.06-5.21-9.09V249.54C364.81,243.51,365.23,240.45,369.94,240.45Z"/><polygon class="cls-1" points="93.8 276.74 68.31 276.74 69.19 274.64 93.8 274.64 93.8 276.74"/><polygon class="cls-1" points="37.46 281.39 35.48 280.67 45.66 252.36 47.55 253.26 37.46 281.39"/><path class="cls-1" d="M42.82,240.47s6.94.49,2.84,11.89l-.2,3.13,2.17-3.13s1.19-7.83,1.32-8.24a16.22,16.22,0,0,0-.45-3l-4.16-.65-.76-.44Z"/><polyline class="cls-1" points="65.33 282.5 76.04 255.09 78 255.85 65.76 287.25"/><path class="cls-1" d="M66,286.53c-3.87,10,3.65,11,3.65,11l-.72.2H65.61l-2.51-1.11-.58-2.13s.18-2,.2-2.35,2.61-8.54,2.61-8.54l.34-.58"/><path class="cls-1" d="M246.91,288.41c0,6.12.5,9.09,5.21,9.09v.42H228.88v-.42c4.72,0,5.13-3,5.21-9.09V249.54c-.08-6-.49-9.09-5.21-9.09V240h23.24v.42c-4.71,0-5.21,3.06-5.21,9.09Z"/><path class="cls-1" d="M301.77,280.8c0,9.93-7.55,17.48-21.26,17.48a40.9,40.9,0,0,1-10.75-1.56c-2.79-.74-7-1.81-7,3.78h-.41V279.4h.41c0,4.76,4.6,18.47,17.48,18.47,7.23,0,9.61-4.76,9.61-8.54,0-15.51-27.09-14.52-27.09-33.73,0-9.76,8-16.41,19.13-16.41,4.59,0,7.3,1.39,10.91,2.38,3,.82,4.6,0,4.6-4.6h.41v21.09h-.41c0-9.93-5.58-18.46-15.35-18.46-5.33,0-8,4.35-8,8.53C274.11,261.51,301.77,262.66,301.77,280.8Z"/><path class="cls-2" d="M278.44,37.77a32.17,32.17,0,0,0-20-11.1,98.79,98.79,0,0,1,17.92,31.14,32.17,32.17,0,0,0,2.12-20Z"/><path class="cls-2" d="M230.38,12.33c-20.77-12.75-52.95-19-69.23-1.8-16.73,17.68-12.93,49.85,8.6,73.53C182.71,76.58,213.14,55.24,230.38,12.33Zm-45.7,9.4A7.42,7.42,0,1,1,185,32.21,7.41,7.41,0,0,1,184.68,21.73Z"/><path class="cls-3" d="M190.18,114.75l-.08-.08L169.33,95l-.07-.06-.06-.06-4-4-.09-.09-.09-.09C139.57,63.85,135.31,26.19,155.34,5c.24-.25.48-.51.73-.75.52-.52,1.05-1,1.59-1.49A91.09,91.09,0,0,0,117.6,26.22a92.43,92.43,0,0,0-11.46,14,71.41,71.41,0,0,0,13.4,50.12c9.94,13.59,25.38,22.38,46.39,25.74a153.57,153.57,0,0,1,30.59,7.87,27.32,27.32,0,0,0-6.32-9.17Z"/><path class="cls-1" d="M164.51,124.92c-52-8.33-64.33-44.94-66-70.85A91.64,91.64,0,0,0,116.8,155a26.68,26.68,0,0,1,7.26-19.68l.52-.54a26.66,26.66,0,0,1,13.92-7.36L151,125l-3.24,12.26a17.35,17.35,0,0,0-.46,6.12,16.86,16.86,0,0,0,5.19,10.53l.28.26a27.19,27.19,0,0,0,37.9-.5l.54-.55a27,27,0,0,0,7.43-18.64C190,130.57,178.87,127.22,164.51,124.92Z"/><path class="cls-2" d="M245.46,24.61h0l0,0-5.75-5.44h0c-.81-.73-1.68-1.44-2.57-2.14a161.58,161.58,0,0,1-14.44,27.33l.08.08a19,19,0,0,1,3.49,23.2,19,19,0,0,1-21.61-.77,142.18,142.18,0,0,1-29,23.13l20,18.89,0,0A35.18,35.18,0,1,1,147.25,160l-.29-.26,0,0A24.83,24.83,0,0,1,140,135.32l0-.09a18.74,18.74,0,0,0-11.32,29.9l-.16,0a18.76,18.76,0,0,0-9.67,32.1,18.46,18.46,0,0,0,3.77,2.77l.07.12a24.81,24.81,0,0,1,31.58-22l.86.26A91.51,91.51,0,0,0,245.46,24.61Z"/></g></g></svg>